<?xml version="1.0" encoding="utf-8"?>
<!-- Generator: Adobe Illustrator 21.0.0, SVG Export Plug-In . SVG Version: 6.00 Build 0)  -->
<svg version="1.1" xmlns="http://www.w3.org/2000/svg" xmlns:xlink="http://www.w3.org/1999/xlink" x="0px" y="0px"
	 viewBox="0 0 206.4 52.7" enable-background="new 0 0 206.4 52.7" xml:space="preserve">
<path d="M2,52.7c-1.1,0-2-0.9-2-2l0-19c0-0.9,0.6-1.7,1.5-1.9c0.9-0.2,1.8,0.1,2.2,0.9c1.5,2.5,4.2,4,7.1,4c4.6,0,8.3-3.7,8.3-8.3
	S15.4,18,10.8,18c-2.9,0-5.6,1.5-7.1,4c-0.5,0.8-1.4,1.1-2.2,0.9C0.6,22.6,0,21.9,0,21l0-5c0-1.1,0.9-2,2-2c0,0,0,0,0,0
	c1.1,0,2,0.9,2,2v0c2-1.3,4.3-2,6.8-2c6.8,0,12.3,5.5,12.3,12.3s-5.5,12.3-12.3,12.3c-2.5,0-4.8-0.7-6.8-2l0,14.1
	C4,51.8,3.1,52.7,2,52.7z"/>
<path d="M93,14.7h-3.1v-4.4c0-1.1-0.9-2-2-2s-2,0.9-2,2v26.4c0,1.1,0.9,2,2,2s2-0.9,2-2v-18H93c1.1,0,2-0.9,2-2S94.1,14.7,93,14.7z"
	/>
<path d="M129.3,52.7c-1.1,0-2-0.9-2-2l0-19c0-0.9,0.6-1.7,1.5-1.9c0.9-0.2,1.8,0.1,2.2,0.9c1.5,2.5,4.2,4,7.1,4
	c4.6,0,8.3-3.7,8.3-8.3s-3.7-8.3-8.3-8.3c-2.9,0-5.6,1.5-7.1,4c-0.5,0.8-1.4,1.1-2.2,0.9c-0.9-0.2-1.5-1-1.5-1.9l0-5
	c0-1.1,0.9-2,2-2h0c1.1,0,2,0.9,2,2v0c2-1.3,4.3-2,6.8-2c6.8,0,12.3,5.5,12.3,12.3s-5.5,12.3-12.3,12.3c-2.5,0-4.8-0.7-6.8-2l0,14.1
	C131.3,51.8,130.4,52.7,129.3,52.7z"/>
<path d="M204.4,38.7L204.4,38.7c-1.1,0-2-0.9-2-2v0c-2,1.3-4.3,2-6.8,2c-6.8,0-12.3-5.5-12.3-12.3S188.8,14,195.6,14
	c2.5,0,4.8,0.7,6.8,2l0-14.1c0-1.1,0.9-2,2-2s2,0.9,2,2l0,19c0,0.9-0.6,1.7-1.5,1.9c-0.9,0.2-1.8-0.1-2.2-0.9c-1.5-2.5-4.2-4-7.1-4
	c-4.6,0-8.3,3.7-8.3,8.3s3.7,8.3,8.3,8.3c2.9,0,5.6-1.5,7.1-4c0.5-0.8,1.4-1.1,2.2-0.9c0.9,0.2,1.5,1,1.5,1.9l0,5
	C206.4,37.8,205.5,38.7,204.4,38.7z"/>
<path d="M76.3,38.7c-1.1,0-2-0.9-2-2V25.1c0-3.9-3.2-7.1-7.1-7.1S60,21.2,60,25.1v11.5c0,1.1-0.9,2-2,2s-2-0.9-2-2V25.1
	C56,19,61,14,67.2,14s11.1,5,11.1,11.1v11.5C78.3,37.8,77.4,38.7,76.3,38.7z"/>
<path d="M118.5,38.7L118.5,38.7c-1.1,0-2-0.9-2-2v0c-2,1.3-4.3,2-6.8,2c-6.8,0-12.3-5.5-12.3-12.3S102.9,14,109.7,14
	c2.5,0,4.8,0.7,6.8,2v0c0-1.1,0.9-2,2-2l0,0c1.1,0,2,0.9,2,2l0,5c0,0.9-0.6,1.7-1.5,1.9c-0.9,0.2-1.8-0.1-2.2-0.9
	c-1.5-2.5-4.2-4-7.1-4c-4.6,0-8.3,3.7-8.3,8.3s3.7,8.3,8.3,8.3c2.9,0,5.6-1.5,7.1-4c0.5-0.8,1.4-1.1,2.2-0.9c0.9,0.2,1.5,1,1.5,1.9
	l0,5C120.5,37.8,119.6,38.7,118.5,38.7z"/>
<path d="M39.6,38.7c-6.8,0-12.3-5.5-12.3-12.3S32.8,14,39.6,14c4.3,0,8.3,2.2,10.5,5.9c0.3,0.5,0.4,1,0.2,1.5s-0.5,1-1,1.2l-9.6,5.4
	c-1,0.5-2.2,0.2-2.7-0.8c-0.5-1-0.2-2.2,0.8-2.7l7.5-4.2c-1.5-1.5-3.6-2.4-5.8-2.4c-4.6,0-8.3,3.7-8.3,8.3s3.7,8.3,8.3,8.3
	c2.9,0,5.6-1.5,7.1-4c0.6-0.9,1.8-1.2,2.7-0.7c0.9,0.6,1.2,1.8,0.7,2.7C47.9,36.4,43.9,38.7,39.6,38.7z"/>
<path d="M166.9,38.7c-6.8,0-12.3-5.5-12.3-12.3S160.1,14,166.9,14c6.8,0,12.3,5.5,12.3,12.3c0,2.8-1,5.6-2.8,7.8
	c-0.7,0.9-2,1-2.8,0.3c-0.9-0.7-1-2-0.3-2.8c1.2-1.5,1.9-3.3,1.9-5.2c0-4.6-3.7-8.3-8.3-8.3s-8.3,3.7-8.3,8.3s3.7,8.3,8.3,8.3
	c1.1,0,2,0.9,2,2S168,38.7,166.9,38.7z"/>
</svg>
