<?xml version="1.0" encoding="utf-8"?>
<!-- Generator: Adobe Illustrator 21.0.0, SVG Export Plug-In . SVG Version: 6.00 Build 0)  -->
<svg version="1.1" xmlns="http://www.w3.org/2000/svg" xmlns:xlink="http://www.w3.org/1999/xlink" x="0px" y="0px"
	 viewBox="0 0 58 57.3" enable-background="new 0 0 58 57.3" xml:space="preserve">
<path d="M55.6,43.4l-8.9-8.1l9.2-9.8c3.6-4.5-3.5-13.4-8-11.4l-6.9,3.4l0.8,4.6l7.8-3.8c1.3-0.5,3.7,3.6,2.7,4.6l-8.7,9.3l-2.7-2.4
	c-0.3-0.4-0.4-0.8-0.5-1.2c-0.3-1.8-0.5-3.5-0.8-5.3l-0.7-4.7l-2-13.2C36,1.8,32.5,0,29,0c-3.5,0-7,1.8-7.7,5.4l-2,13.2l-0.7,4.7
	c-0.3,1.8-0.5,3.5-0.8,5.3c-0.1,0.5-0.2,0.9-0.5,1.2l-2.7,2.4l-8.7-9.3c-1-1.1,1.3-5.1,2.7-4.6l7.8,3.8l0.8-4.6l-6.9-3.4
	c-4.6-2.1-11.7,6.9-8,11.4l9.2,9.8l-8.9,8.1c-5.9,5.4-0.3,16.1,7.6,13.4l14.6-6.4c1.4-0.6,2.9-0.9,4.4-0.9s3,0.3,4.4,0.9L48,56.8
	C55.8,59.6,61.4,48.8,55.6,43.4z M50.3,53l-15.1-6.7c-2-0.9-4.1-1.3-6.2-1.3s-4.3,0.4-6.2,1.3L7.7,53c-2.9,1.2-4.7-3.8-2.8-5.6
	L20,33.5c3.2-2.9,3-9.7,3.7-13.9c0.7-4.5,1.3-8.9,2-13.4C26,5,27.5,4.4,29,4.4s3,0.6,3.3,1.8c0.7,4.5,1.3,8.9,2,13.4
	c0.6,4.1,0.5,10.9,3.7,13.9l15.2,13.9C55.1,49.2,53.2,54.1,50.3,53z"/>
</svg>
